<svg xmlns:dc="http://purl.org/dc/elements/1.1/" xmlns:cc="http://creativecommons.org/ns#" xmlns:rdf="http://www.w3.org/1999/02/22-rdf-syntax-ns#" xmlns:svg="http://www.w3.org/2000/svg" xmlns="http://www.w3.org/2000/svg" xmlns:xlink="http://www.w3.org/1999/xlink" id="svg519525" viewBox="0 0 2400 3000" version="1.1" style="
">
  <g id="title" style="font-style:normal;font-weight:300;font-size:72px;line-height:1;font-family:'Montserrat Light Alt1';font-variant-ligatures:none;text-align:center;text-anchor:middle" transform="translate(0 0)">
    <path id="path519534" style="font-style:normal;font-weight:300;font-size:72px;line-height:1;font-family:'Montserrat Light Alt1';font-variant-ligatures:none;text-align:center;text-anchor:middle" d="m 165.68337,-50.4 h -3.672 v 43.776 l -34.272,-43.776 h -3.096 V 0 h 3.672 V -43.776 L 162.65937,0 h 3.024 z" stroke-width="0" stroke-linejoin="miter" stroke-miterlimit="2" fill="#530be8" stroke="#530be8" transform="translate(0 302.14) translate(205.04051375 62.96) scale(0.75) translate(-124.64337 50.4)"></path>
    <path id="path519536" style="font-style:normal;font-weight:300;font-size:72px;line-height:1;font-family:'Montserrat Light Alt1';font-variant-ligatures:none;text-align:center;text-anchor:middle" d="m 191.276,-2.952 c 3.96,2.232 8.424,3.312 13.392,3.312 4.896,0 9.36,-1.08 13.392,-3.312 3.96,-2.16 7.056,-5.256 9.36,-9.144 2.304,-3.888 3.456,-8.208 3.456,-13.104 0,-4.824 -1.152,-9.216 -3.456,-13.104 -2.304,-3.888 -5.4,-6.912 -9.36,-9.144 -4.032,-2.16 -8.496,-3.312 -13.392,-3.312 -4.968,0 -9.432,1.152 -13.392,3.384 -4.032,2.232 -7.128,5.256 -9.432,9.144 -2.304,3.888 -3.384,8.28 -3.384,13.032 0,4.824 1.08,9.144 3.384,13.032 2.304,3.888 5.4,6.984 9.432,9.216 z m 24.84,-2.952 c -3.456,1.944 -7.272,2.88 -11.448,2.88 -4.248,0 -8.064,-0.936 -11.52,-2.88 -3.456,-1.872 -6.12,-4.536 -8.064,-7.92 -2.016,-3.384 -2.952,-7.2 -2.952,-11.376 0,-4.176 0.936,-7.92 2.952,-11.304 1.944,-3.384 4.608,-6.048 8.064,-7.992 3.456,-1.872 7.272,-2.88 11.52,-2.88 4.176,0 7.992,1.008 11.448,2.88 3.384,1.944 6.048,4.608 8.064,7.992 1.944,3.384 2.952,7.128 2.952,11.304 0,4.176 -1.008,7.992 -2.952,11.376 -2.016,3.384 -4.68,6.048 -8.064,7.92 z" stroke-width="0" stroke-linejoin="miter" stroke-miterlimit="2" fill="#6010e2" stroke="#6010e2" transform="translate(0 302.14) translate(247.65298625000003 62.69) scale(0.75) translate(-178.46 50.76)"></path>
    <path id="path519538" style="font-style:normal;font-weight:300;font-size:72px;line-height:1;font-family:'Montserrat Light Alt1';font-variant-ligatures:none;text-align:center;text-anchor:middle" d="M 252.557,-47.088 V 0 h 3.672 v -47.088 h 18.144 V -50.4 h -39.96 v 3.312 z" stroke-width="0" stroke-linejoin="miter" stroke-miterlimit="2" fill="#6d14dc" stroke="#6d14dc" transform="translate(0 302.14) translate(291.86773625000006 62.96) scale(0.75) translate(-234.413 50.4)"></path>
    <path id="path519540" style="font-style:normal;font-weight:300;font-size:72px;line-height:1;font-family:'Montserrat Light Alt1';font-variant-ligatures:none;text-align:center;text-anchor:middle" d="m 334.5875,-27.216 h -32.616 v 3.24 h 32.616 z m 0,-23.184 h -32.616 v 3.312 h 32.616 z m -32.616,47.088 V 0 h 32.616 v -3.312 z" stroke-width="0" stroke-linejoin="miter" stroke-miterlimit="2" fill="#7a19d6" stroke="#7a19d6" transform="translate(0 302.14) translate(344.78661125 62.96) scale(0.75) translate(-301.9715 50.4)"></path>
    <path id="path519542" style="font-style:normal;font-weight:300;font-size:72px;line-height:1;font-family:'Montserrat Light Alt1';font-variant-ligatures:none;text-align:center;text-anchor:middle" d="m 391.24587,-50.4 h -3.672 v 43.776 l -34.272,-43.776 h -3.096 V 0 h 3.67201 V -43.776 L 388.22187,0 h 3.024 z" stroke-width="0" stroke-linejoin="miter" stroke-miterlimit="2" fill="#861ed1" stroke="#861ed1" transform="translate(0 302.14) translate(383.21238875000006 62.96) scale(0.75) translate(-350.20587 50.4)"></path>
    <path id="path519544" style="font-style:normal;font-weight:300;font-size:72px;line-height:1;font-family:'Montserrat Light Alt1';font-variant-ligatures:none;text-align:center;text-anchor:middle" d="m 416.8385,-2.952 c 3.96,2.232 8.424,3.312 13.392,3.312 4.896,0 9.36,-1.08 13.392,-3.312 3.96,-2.16 7.056,-5.256 9.36,-9.144 2.304,-3.888 3.456,-8.208 3.456,-13.104 0,-4.824 -1.152,-9.216 -3.456,-13.104 -2.304,-3.888 -5.4,-6.912 -9.36,-9.144 -4.032,-2.16 -8.496,-3.312 -13.392,-3.312 -4.968,0 -9.432,1.152 -13.392,3.384 -4.032,2.232 -7.128,5.256 -9.432,9.144 -2.304,3.888 -3.384,8.28 -3.384,13.032 0,4.824 1.08,9.144 3.384,13.032 2.304,3.888 5.4,6.984 9.432,9.216 z m 24.84,-2.952 c -3.456,1.944 -7.272,2.88 -11.448,2.88 -4.248,0 -8.064,-0.936 -11.52,-2.88 -3.456,-1.872 -6.12,-4.536 -8.064,-7.92 -2.016,-3.384 -2.952,-7.2 -2.952,-11.376 0,-4.176 0.936,-7.92 2.952,-11.304 1.944,-3.384 4.608,-6.048 8.064,-7.992 3.456,-1.872 7.272,-2.88 11.52,-2.88 4.176,0 7.992,1.008 11.448,2.88 3.384,1.944 6.048,4.608 8.064,7.992 1.944,3.384 2.952,7.128 2.952,11.304 0,4.176 -1.008,7.992 -2.952,11.376 -2.016,3.384 -4.68,6.048 -8.064,7.92 z" stroke-width="0" stroke-linejoin="miter" stroke-miterlimit="2" fill="#9322cb" stroke="#9322cb" transform="translate(0 302.14) translate(425.82486125 62.69) scale(0.75) translate(-404.0225 50.76)"></path>
    <path id="path519546" style="font-style:normal;font-weight:300;font-size:72px;line-height:1;font-family:'Montserrat Light Alt1';font-variant-ligatures:none;text-align:center;text-anchor:middle" d="m 473.99862,-5.184 c 3.52801,3.744 8.496,5.544 14.904,5.544 6.33601,0 11.30401,-1.8 14.904,-5.544 3.52801,-3.672 5.32801,-9.072 5.32801,-16.2 V -50.4 h -3.67201 v 28.872 c 0,6.192 -1.44,10.872 -4.248,13.896 -2.87999,3.096 -6.912,4.608 -12.24,4.608 -5.39999,0 -9.504,-1.512 -12.312,-4.608 -2.88,-3.024 -4.248,-7.704 -4.248,-13.896 V -50.4 h -3.672 v 29.016 c 0,7.128 1.728,12.528 5.256,16.2 z" stroke-width="0" stroke-linejoin="miter" stroke-miterlimit="2" fill="#a027c5" stroke="#a027c5" transform="translate(0 302.14) translate(476.61495125000005 62.96) scale(0.75) translate(-468.74262 50.4)"></path>
    <path id="path519548" style="font-style:normal;font-weight:300;font-size:72px;line-height:1;font-family:'Montserrat Light Alt1';font-variant-ligatures:none;text-align:center;text-anchor:middle" d="m 562.26837,-24.984 v 17.352 c -3.816,3.096 -8.568,4.608 -14.32799,4.608 -4.32001,0 -8.208,-0.936 -11.664,-2.88 -3.456,-1.944 -6.192,-4.608 -8.20801,-7.992 -2.016,-3.384 -2.952,-7.128 -2.952,-11.304 0,-4.176 0.936,-7.92 2.952,-11.304 1.94401,-3.384 4.68,-6.048 8.13601,-7.992 3.456,-1.872 7.41599,-2.88 11.736,-2.88 3.168,0 6.048,0.504 8.63999,1.44 2.592,0.936 4.968,2.448 7.12801,4.536 l 2.304,-2.448 c -2.232,-2.232 -4.89601,-3.96 -7.992,-5.112 -3.096,-1.152 -6.48,-1.8 -10.152,-1.8 -5.04,0 -9.57601,1.152 -13.60801,3.312 -4.03199,2.232 -7.12799,5.256 -9.43199,9.144 -2.30401,3.888 -3.384,8.28 -3.384,13.104 0,4.896 1.07999,9.216 3.384,13.104 2.304,3.888 5.4,6.984 9.43199,9.144 4.032,2.232 8.49601,3.312 13.536,3.312 3.45601,0 6.76801,-0.504 9.93601,-1.656 3.16799,-1.08 5.832,-2.664 8.06399,-4.824 v -18.864 z" stroke-width="0" stroke-linejoin="miter" stroke-miterlimit="2" fill="#ad2cbf" stroke="#ad2cbf" transform="translate(0 302.14) translate(518.39127125 62.69) scale(0.75) translate(-521.44438 50.76)"></path>
    <path id="path519550" style="font-style:normal;font-weight:300;font-size:72px;line-height:1;font-family:'Montserrat Light Alt1';font-variant-ligatures:none;text-align:center;text-anchor:middle" d="m 622.99587,-50.4 h -3.67199 v 23.184 h -33.696 V -50.4 h -3.67201 V 0 h 3.67201 v -23.976 h 33.696 V 0 h 3.67199 z" stroke-width="0" stroke-linejoin="miter" stroke-miterlimit="2" fill="#ba31b9" stroke="#ba31b9" transform="translate(0 302.14) translate(566.0248887500001 62.96) scale(0.75) translate(-581.95587 50.4)"></path>
    <path id="path519552" style="font-style:normal;font-weight:300;font-size:72px;line-height:1;font-family:'Montserrat Light Alt1';font-variant-ligatures:none;text-align:center;text-anchor:middle" d="m 667.079,-2.952 c 3.96,2.232 8.424,3.312 13.392,3.312 3.6,0 6.912,-0.576 10.008,-1.8 3.096,-1.152 5.76,-2.952 7.92,-5.256 l -2.304,-2.376 c -4.104,4.032 -9.288,6.048 -15.48,6.048 -4.248,0 -8.064,-0.936 -11.52,-2.88 -3.456,-1.872 -6.192,-4.536 -8.136,-7.92 -2.016,-3.384 -2.952,-7.2 -2.952,-11.376 0,-4.176 0.936,-7.92 2.952,-11.304 1.944,-3.384 4.68,-6.048 8.136,-7.992 3.456,-1.872 7.272,-2.88 11.52,-2.88 6.264,0 11.448,2.016 15.48,5.976 l 2.304,-2.376 c -2.16,-2.304 -4.824,-4.032 -7.848,-5.184 -3.096,-1.152 -6.48,-1.8 -10.08,-1.8 -4.968,0 -9.432,1.152 -13.392,3.312 -3.96,2.232 -7.056,5.256 -9.36,9.144 -2.304,3.888 -3.384,8.28 -3.384,13.104 0,4.896 1.08,9.216 3.384,13.104 2.304,3.888 5.4,6.984 9.36,9.144 z" stroke-width="0" stroke-linejoin="miter" stroke-miterlimit="2" fill="#c735b3" stroke="#c735b3" transform="translate(0 302.14) translate(622.5592362500001 62.69) scale(0.75) translate(-654.335 50.76)"></path>
    <path id="path519554" style="font-style:normal;font-weight:300;font-size:72px;line-height:1;font-family:'Montserrat Light Alt1';font-variant-ligatures:none;text-align:center;text-anchor:middle" d="m 717.63537,-2.952 c 3.96,2.232 8.42401,3.312 13.392,3.312 4.896,0 9.36001,-1.08 13.392,-3.312 3.96,-2.16 7.056,-5.256 9.36,-9.144 2.30401,-3.888 3.456,-8.208 3.456,-13.104 0,-4.824 -1.15199,-9.216 -3.456,-13.104 -2.304,-3.888 -5.4,-6.912 -9.36,-9.144 -4.03199,-2.16 -8.496,-3.312 -13.392,-3.312 -4.96799,0 -9.432,1.152 -13.392,3.384 -4.03199,2.232 -7.12799,5.256 -9.43199,9.144 -2.30401,3.888 -3.384,8.28 -3.384,13.032 0,4.824 1.07999,9.144 3.384,13.032 2.304,3.888 5.4,6.984 9.43199,9.216 z m 24.84,-2.952 c -3.456,1.944 -7.27199,2.88 -11.448,2.88 -4.248,0 -8.06399,-0.936 -11.51999,-2.88 -3.45601,-1.872 -6.12,-4.536 -8.06401,-7.92 -2.016,-3.384 -2.952,-7.2 -2.952,-11.376 0,-4.176 0.936,-7.92 2.952,-11.304 1.94401,-3.384 4.608,-6.048 8.06401,-7.992 3.456,-1.872 7.27199,-2.88 11.51999,-2.88 4.17601,0 7.992,1.008 11.448,2.88 3.384,1.944 6.048,4.608 8.06401,7.992 1.944,3.384 2.95199,7.128 2.95199,11.304 0,4.176 -1.00799,7.992 -2.95199,11.376 -2.01601,3.384 -4.68001,6.048 -8.06401,7.92 z" stroke-width="0" stroke-linejoin="miter" stroke-miterlimit="2" fill="#d33aae" stroke="#d33aae" transform="translate(0 302.14) translate(662.6725212500002 62.69) scale(0.75) translate(-704.81938 50.76)"></path>
    <path id="path519556" style="font-style:normal;font-weight:300;font-size:72px;line-height:1;font-family:'Montserrat Light Alt1';font-variant-ligatures:none;text-align:center;text-anchor:middle" d="m 808.67263,-50.4 h -3.81601 l -20.37599,45.648 -20.376,-45.648 h -4.032 L 782.53662,0 h 3.672 z" stroke-width="0" stroke-linejoin="miter" stroke-miterlimit="2" fill="#e03fa8" stroke="#e03fa8" transform="translate(0 302.14) translate(706.3624587500001 62.96) scale(0.75) translate(-760.07263 50.4)"></path>
    <path id="path519558" style="font-style:normal;font-weight:300;font-size:72px;line-height:1;font-family:'Montserrat Light Alt1';font-variant-ligatures:none;text-align:center;text-anchor:middle" d="m 849.41562,-27.216 h -32.616 v 3.24 h 32.616 z m 0,-23.184 h -32.616 v 3.312 h 32.616 z m -32.616,47.088 V 0 h 32.616 v -3.312 z" stroke-width="0" stroke-linejoin="miter" stroke-miterlimit="2" fill="#ed43a2" stroke="#ed43a2" transform="translate(0 302.14) translate(751.1577012500002 62.96) scale(0.75) translate(-816.79962 50.4)"></path>
    <path id="path519560" style="font-style:normal;font-weight:300;font-size:72px;line-height:1;font-family:'Montserrat Light Alt1';font-variant-ligatures:none;text-align:center;text-anchor:middle" d="m 891.602,-17.64 c 3.744,-1.08 6.696,-2.952 8.712,-5.688 2.016,-2.736 3.096,-6.048 3.096,-10.08 0,-5.256 -1.8,-9.432 -5.4,-12.456 -3.6,-3.024 -8.568,-4.536 -14.904,-4.536 h -18.072 v 3.312 h 18.072 c 5.328,0 9.432,1.224 12.312,3.6 2.808,2.376 4.248,5.76 4.248,10.08 0,4.392 -1.44,7.776 -4.248,10.152 -2.88,2.376 -6.984,3.528 -12.312,3.528 H 865.034 V 0 h 3.672 v -16.488 h 14.4 c 1.44,0 3.096,-0.072 4.896,-0.36 L 900.026,0 h 4.176 z" stroke-width="0" stroke-linejoin="miter" stroke-miterlimit="2" fill="#fa489c" stroke="#fa489c" transform="translate(0 302.14) translate(789.5834862500002 62.96) scale(0.75) translate(-865.034 50.4)"></path>
  </g>
</svg>